<svg xmlns="http://www.w3.org/2000/svg" viewBox="0 0 1920 1080" width="1920" height="1080">
  <defs>
    <linearGradient id="bg" x1="0" y1="0" x2="1" y2="1">
      <stop offset="0%" stop-color="#FFF7ED"/>
      <stop offset="100%" stop-color="#F3E8FF"/>
    </linearGradient>
  </defs>
  <rect width="1920" height="1080" fill="url(#bg)"/>
  <!-- clouds -->
  <ellipse cx="300" cy="200" rx="120" ry="60" fill="white" opacity="0.5"/>
  <ellipse cx="400" cy="180" rx="100" ry="55" fill="white" opacity="0.5"/>
  <ellipse cx="200" cy="210" rx="90" ry="50" fill="white" opacity="0.5"/>
  <ellipse cx="1200" cy="150" rx="130" ry="65" fill="white" opacity="0.4"/>
  <ellipse cx="1320" cy="130" rx="110" ry="58" fill="white" opacity="0.4"/>
  <ellipse cx="1100" cy="165" rx="100" ry="52" fill="white" opacity="0.4"/>
  <ellipse cx="700" cy="900" rx="150" ry="70" fill="white" opacity="0.35"/>
  <ellipse cx="850" cy="880" rx="120" ry="60" fill="white" opacity="0.35"/>
  <!-- stars -->
  <g fill="#C4B5FD" opacity="0.35">
    <circle cx="500" cy="350" r="4"/><circle cx="800" cy="250" r="3"/><circle cx="1100" cy="400" r="5"/><circle cx="1400" cy="300" r="4"/><circle cx="1700" cy="450" r="3"/>
    <circle cx="150" cy="500" r="4"/><circle cx="600" cy="650" r="3"/><circle cx="1000" cy="700" r="5"/><circle cx="1600" cy="650" r="4"/>
    <circle cx="350" cy="800" r="3"/><circle cx="900" cy="950" r="4"/><circle cx="1500" cy="850" r="3"/><circle cx="1800" cy="750" r="5"/>
  </g>
</svg>