<svg xmlns="http://www.w3.org/2000/svg" viewBox="0 0 512 512" width="512" height="512">
  <rect width="512" height="512" rx="80" fill="#FFF7ED"/>
  <circle cx="256" cy="200" r="100" fill="#F97316"/>
  <ellipse cx="180" cy="130" rx="35" ry="45" fill="#F97316"/>
  <ellipse cx="332" cy="130" rx="35" ry="45" fill="#F97316"/>
  <ellipse cx="180" cy="130" rx="20" ry="28" fill="#FDBA74"/>
  <ellipse cx="332" cy="130" rx="20" ry="28" fill="#FDBA74"/>
  <ellipse cx="256" cy="210" rx="80" ry="70" fill="#FDBA74"/>
  <path d="M211 185 Q225 172 239 185" stroke="#1C1917" stroke-width="4" fill="none"/>
  <path d="M273 185 Q287 172 301 185" stroke="#1C1917" stroke-width="4" fill="none"/>
  <ellipse cx="256" cy="210" rx="8" ry="5" fill="#EA580C"/>
  <path d="M222 228 Q256 258 290 228" stroke="#1C1917" stroke-width="5" fill="none" stroke-linecap="round"/>
  <text x="130" y="165" font-size="28" fill="#FBBF24">★</text>
  <text x="330" y="148" font-size="22" fill="#FBBF24">★</text>
  <text x="355" y="185" font-size="18" fill="#FBBF24">✦</text>
  <ellipse cx="256" cy="380" rx="90" ry="100" fill="#F97316"/>
  <ellipse cx="256" cy="370" rx="60" ry="70" fill="#FDBA74"/>
</svg>