<svg xmlns="http://www.w3.org/2000/svg" viewBox="0 0 512 512" width="512" height="512">
  <rect width="512" height="512" rx="80" fill="#FFF7ED"/>
  <circle cx="256" cy="200" r="100" fill="#F97316"/>
  <ellipse cx="180" cy="130" rx="35" ry="45" fill="#F97316"/>
  <ellipse cx="332" cy="130" rx="35" ry="45" fill="#F97316"/>
  <ellipse cx="180" cy="130" rx="20" ry="28" fill="#FDBA74"/>
  <ellipse cx="332" cy="130" rx="20" ry="28" fill="#FDBA74"/>
  <ellipse cx="256" cy="210" rx="80" ry="70" fill="#FDBA74"/>
  <circle cx="225" cy="185" r="14" fill="#1C1917"/>
  <path d="M273 185 Q287 178 301 185" stroke="#1C1917" stroke-width="4" fill="none"/>
  <circle cx="230" cy="180" r="5" fill="white"/>
  <ellipse cx="256" cy="210" rx="8" ry="5" fill="#EA580C"/>
  <path d="M235 228 Q268 248 282 232" stroke="#1C1917" stroke-width="4" fill="none" stroke-linecap="round"/>
  <text x="295" y="158" font-size="32" fill="#FBBF24">✨</text>
  <ellipse cx="256" cy="380" rx="90" ry="100" fill="#F97316"/>
  <ellipse cx="256" cy="370" rx="60" ry="70" fill="#FDBA74"/>
  <path d="M346 360 Q430 310 410 240 Q390 200 350 240" stroke="#F97316" stroke-width="35" fill="none" stroke-linecap="round"/>
</svg>