<svg xmlns="http://www.w3.org/2000/svg" width="320" height="320" viewBox="0 0 320 320" role="img" aria-label="年轻女老师活泼">
  <defs>
    <linearGradient id="bg" x1="40" y1="30" x2="278" y2="288" gradientUnits="userSpaceOnUse">
      <stop stop-color="#FFE4E6"/>
      <stop offset="0.48" stop-color="#ECFCCB"/>
      <stop offset="1" stop-color="#E0F2FE"/>
    </linearGradient>
    <linearGradient id="hair" x1="94" y1="50" x2="226" y2="214" gradientUnits="userSpaceOnUse">
      <stop stop-color="#70462F"/>
      <stop offset="1" stop-color="#2C1A11"/>
    </linearGradient>
  </defs>
  <circle cx="160" cy="160" r="140" fill="url(#bg)"/>
  <path d="M72 276c10-55 47-88 88-88s78 33 88 88" fill="#F97316"/>
  <path d="M105 276v-38c0-22 18-40 40-40h30c22 0 40 18 40 40v38" fill="#FFFFFF"/>
  <path d="M121 222h78l-39 38z" fill="#93C5FD"/>
  <path d="M96 144c-18-52 8-95 62-95 50 0 79 38 64 94-8 34-27 56-62 56s-55-21-64-55z" fill="url(#hair)"/>
  <path d="M108 120c3-39 24-62 52-62s50 23 52 62v36c0 34-22 60-52 60s-52-26-52-60z" fill="#FFD7B8"/>
  <path d="M110 123c15-5 30-18 41-39 17 23 39 35 62 39-2-42-24-70-54-70s-52 28-49 70z" fill="url(#hair)"/>
  <circle cx="137" cy="146" r="5" fill="#111827"/>
  <path d="M176 145c7-5 15-3 20 4" fill="none" stroke="#111827" stroke-width="5" stroke-linecap="round"/>
  <path d="M145 177c10 11 24 12 36 1" fill="none" stroke="#B45309" stroke-width="5" stroke-linecap="round"/>
  <circle cx="125" cy="164" r="9" fill="#F9A8D4" opacity="0.6"/>
  <circle cx="195" cy="164" r="9" fill="#F9A8D4" opacity="0.6"/>
  <path d="M222 91l13 14 20-29" fill="none" stroke="#22C55E" stroke-width="8" stroke-linecap="round" stroke-linejoin="round"/>
  <path d="M74 229c15-22 39-28 65-18" fill="none" stroke="#FFD7B8" stroke-width="16" stroke-linecap="round"/>
  <circle cx="74" cy="231" r="11" fill="#FFD7B8"/>
  <circle cx="81" cy="78" r="8" fill="#F472B6"/>
  <circle cx="60" cy="113" r="7" fill="#38BDF8"/>
</svg>
