<svg xmlns="http://www.w3.org/2000/svg" width="320" height="320" viewBox="0 0 320 320" role="img" aria-label="年轻女老师鼓励">
  <defs>
    <linearGradient id="bg" x1="40" y1="28" x2="276" y2="292" gradientUnits="userSpaceOnUse">
      <stop stop-color="#DCFCE7"/>
      <stop offset="0.55" stop-color="#FEF3C7"/>
      <stop offset="1" stop-color="#FCE7F3"/>
    </linearGradient>
    <linearGradient id="hair" x1="92" y1="52" x2="228" y2="216" gradientUnits="userSpaceOnUse">
      <stop stop-color="#6B442E"/>
      <stop offset="1" stop-color="#2E1B11"/>
    </linearGradient>
  </defs>
  <circle cx="160" cy="160" r="140" fill="url(#bg)"/>
  <path d="M70 276c11-55 47-88 90-88s79 33 90 88" fill="#14B8A6"/>
  <path d="M105 276v-38c0-22 18-40 40-40h30c22 0 40 18 40 40v38" fill="#FFFFFF"/>
  <path d="M121 222h78l-39 38z" fill="#FCA5A5"/>
  <path d="M98 142c-17-53 9-94 61-94 49 0 78 37 64 92-8 34-27 58-63 58s-54-22-62-56z" fill="url(#hair)"/>
  <path d="M108 119c3-38 24-61 52-61s50 23 52 61v37c0 34-22 60-52 60s-52-26-52-60z" fill="#FFD7B8"/>
  <path d="M110 122c15-5 30-18 41-38 17 23 39 34 62 38-2-42-24-69-54-69s-52 27-49 69z" fill="url(#hair)"/>
  <path d="M132 145c5-5 11-5 16 0" fill="none" stroke="#1F2937" stroke-width="5" stroke-linecap="round"/>
  <path d="M172 145c5-5 11-5 16 0" fill="none" stroke="#1F2937" stroke-width="5" stroke-linecap="round"/>
  <path d="M144 176c11 13 25 13 36 0" fill="none" stroke="#B45309" stroke-width="5" stroke-linecap="round"/>
  <circle cx="126" cy="164" r="9" fill="#F9A8D4" opacity="0.65"/>
  <circle cx="196" cy="164" r="9" fill="#F9A8D4" opacity="0.65"/>
  <path d="M218 221c18 1 31 14 32 32" fill="none" stroke="#FFD7B8" stroke-width="16" stroke-linecap="round"/>
  <path d="M250 250l16-23" stroke="#FFD7B8" stroke-width="13" stroke-linecap="round"/>
  <path d="M244 252l25-3" stroke="#FFD7B8" stroke-width="13" stroke-linecap="round"/>
  <path d="M69 108l14 14 28-38" fill="none" stroke="#10B981" stroke-width="10" stroke-linecap="round" stroke-linejoin="round"/>
  <circle cx="241" cy="91" r="9" fill="#F59E0B"/>
  <circle cx="262" cy="124" r="7" fill="#60A5FA"/>
</svg>
